# xmcd
#
# Track frame offsets: 
#        150
#        11207
#        23652
#        35482
#        47725
#        61140
#        73477
#        90727
#        103330
#        119890
#        131355
#        143857
#        157687
#        168900
#        178530
#        189960
#
# Disc length: 2712 seconds
#
# Revision: 0
# Processed by: cddbd v1.5.2PL0 Copyright (c) Steve Scherf et al.
# Submitted via: ExactAudioCopy v1.0b3
#
DISCID=dc0a9610
DTITLE=Various Artist - Soul Music Best Selection Disc 1
DYEAR=1900
DGENRE=R&B
TTITLE0=Land Of 1000 Dances
TTITLE1=My Girl
TTITLE2=Baby It's You
TTITLE3=I Can't Help Myself
TTITLE4=Spanish Harlem
TTITLE5=You Keep Me Hangin'on
TTITLE6=Try A LittleTenderness
TTITLE7=My Guy
TTITLE8=Georgia On My Mind
TTITLE9=Try Me
TTITLE10=Shop Around
TTITLE11=I Say A Lttle Prayer
TTITLE12=Save The Last Dance For Me
TTITLE13=Pride And Joy
TTITLE14=Hold On I'mComin'
TTITLE15=Stand By Me
EXTD=
EXTT0=
EXTT1=
EXTT2=
EXTT3=
EXTT4=
EXTT5=
EXTT6=
EXTT7=
EXTT8=
EXTT9=
EXTT10=
EXTT11=
EXTT12=
EXTT13=
EXTT14=
EXTT15=
PLAYORDER=
